HIERARCHY
ROOT Hips
{
	OFFSET -21.947001 39.810204 44.525997
	CHANNELS 6 Xposition Yposition Zposition Zrotation Xrotation Yrotation
	JOINT Chest
	{
		OFFSET -0.201599 0.334099 6.453201
		CHANNELS 6 Xposition Yposition Zposition Zrotation Xrotation Yrotation
		JOINT Chest2
		{
			OFFSET 0.000000 0.000000 3.568001
			CHANNELS 6 Xposition Yposition Zposition Zrotation Xrotation Yrotation
			JOINT Neck
			{
				OFFSET 0.000000 0.000000 8.296402
				CHANNELS 6 Xposition Yposition Zposition Zrotation Xrotation Yrotation
				JOINT Head
				{
					OFFSET 0.000000 0.000000 2.173901
					CHANNELS 6 Xposition Yposition Zposition Zrotation Xrotation Yrotation
					End Site
					{
						OFFSET 0.000000 0.000000 7.891998
					}
				}
			}
			JOINT LeftCollar
			{
				OFFSET 1.927601 0.221401 6.049000
				CHANNELS 6 Xposition Yposition Zposition Zrotation Xrotation Yrotation
				JOINT LeftShoulder
				{
					OFFSET 4.959700 0.000000 0.000000
					CHANNELS 6 Xposition Yposition Zposition Zrotation Xrotation Yrotation
					JOINT LeftElbow
					{
						OFFSET 0.000000 0.000000 -8.654202
						CHANNELS 6 Xposition Yposition Zposition Zrotation Xrotation Yrotation
						JOINT LeftWrist
						{
							OFFSET 0.000000 0.000000 -13.864101
							CHANNELS 6 Xposition Yposition Zposition Zrotation Xrotation Yrotation
							End Site
							{
								OFFSET 0.000000 0.000000 -2.173901
							}
						}
					}
				}
			}
			JOINT RightCollar
			{
				OFFSET -3.155701 -0.764999 6.687801
				CHANNELS 6 Xposition Yposition Zposition Zrotation Xrotation Yrotation
				JOINT RightShoulder
				{
					OFFSET -3.592899 0.000000 0.000000
					CHANNELS 6 Xposition Yposition Zposition Zrotation Xrotation Yrotation
					JOINT RightElbow
					{
						OFFSET 0.000000 0.000000 -10.352398
						CHANNELS 6 Xposition Yposition Zposition Zrotation Xrotation Yrotation
						JOINT RightWrist
						{
							OFFSET 0.000000 0.000000 -12.750301
							CHANNELS 6 Xposition Yposition Zposition Zrotation Xrotation Yrotation
							End Site
							{
								OFFSET 0.000000 0.000000 -2.173901
							}
						}
					}
				}
			}
		}
	}
	JOINT LeftHip
	{
		OFFSET 2.460600 -0.518101 -2.735500
		CHANNELS 6 Xposition Yposition Zposition Zrotation Xrotation Yrotation
		JOINT LeftKnee
		{
			OFFSET 0.000000 -0.000004 -17.005899
			CHANNELS 6 Xposition Yposition Zposition Zrotation Xrotation Yrotation
			JOINT LeftAnkle
			{
				OFFSET 0.000000 0.000000 -19.194401
				CHANNELS 6 Xposition Yposition Zposition Zrotation Xrotation Yrotation
				End Site
				{
					OFFSET 0.000000 -8.134600 0.000000
				}
			}
		}
	}
	JOINT RightHip
	{
		OFFSET -3.115499 -0.679600 -2.320301
		CHANNELS 6 Xposition Yposition Zposition Zrotation Xrotation Yrotation
		JOINT RightKnee
		{
			OFFSET 0.000000 -0.000004 -17.680401
			CHANNELS 6 Xposition Yposition Zposition Zrotation Xrotation Yrotation
			JOINT RightAnkle
			{
				OFFSET 0.000000 0.000000 -16.993797
				CHANNELS 6 Xposition Yposition Zposition Zrotation Xrotation Yrotation
				End Site
				{
					OFFSET 0.000000 -8.842300 0.000000
				}
			}
		}
	}
}
MOTION
Frames: 5
Frame Time: 0.041667
58.578003 15.955210 37.028091 2875.561878 24.285275 0.391824 -0.201601 0.334097 6.453200 1.399501 17.430665 11.897395 0.000001 0.000006 3.567999 -7.148107 -5.737780 -2.288002 0.000002 -0.000004 8.296400 198.157762 -182.412879 179.968736 -0.000001 0.000000 2.173903 1.568604 -0.158443 0.783028 1.927598 0.221398 6.049003 -16.939494 5.149882 0.307707 4.959695 0.000002 0.000005 134.075917 181.489820 87.163985 0.000005 0.000008 -8.654200 -13.260534 -37.710482 12.328181 -0.000002 0.000002 -13.864092 3912.520761 44.645234 -106.778717 -3.155704 -0.765004 6.687802 46.891328 16.339822 5.746088 -3.592899 -0.000002 0.000008 -133.768258 182.798429 266.117557 -0.000002 -0.000004 -10.352403 -318.330146 -36.015850 -337.314001 -0.000007 0.000004 -12.750304 158.829465 188.687145 -202.570953 2.460598 -0.518101 -2.735502 -997.483886 -34.864120 66.082258 0.000003 0.000000 -17.005901 792.048079 147.300666 -121.642268 -0.000008 0.000005 -19.194397 240.256057 167.533831 212.766212 -3.115496 -0.679594 -2.320301 -395.673624 -35.766453 -33.925311 -0.000011 -0.000005 -17.680399 -791.116004 171.167478 -253.014058 0.000004 0.000000 -16.993795 1363.658196 21.157990 -399.631855
58.575302 15.733007 37.628601 2874.498991 22.771489 0.593367 -0.201602 0.334094 6.453208 2.412582 16.833459 12.003624 0.000005 0.000005 3.567999 -7.472526 -5.545585 -2.326116 0.000004 -0.000004 8.296390 198.462689 -183.746978 179.272890 -0.000002 0.000004 2.173900 1.575241 -0.244351 0.733488 1.927603 0.221399 6.048994 -17.381267 3.375696 -0.194440 4.959697 -0.000013 0.000011 136.220719 179.442935 85.770025 0.000003 -0.000014 -8.654196 -11.989056 -41.447627 13.918116 -0.000003 -0.000004 -13.864100 3913.130560 44.063326 -106.370429 -3.155701 -0.765004 6.687799 46.638147 16.263191 6.150164 -3.592894 -0.000014 0.000009 -135.223634 181.766429 268.688113 0.000003 -0.000006 -10.352390 -315.168752 -38.430841 -333.658402 -0.000002 0.000000 -12.750299 154.737171 189.952943 -203.411981 2.460593 -0.518106 -2.735506 -1000.146786 -35.041008 61.696525 -0.000004 -0.000005 -17.005898 796.352191 145.578816 -124.820915 -0.000013 -0.000002 -19.194407 237.575754 167.024818 209.791350 -3.115500 -0.679597 -2.320304 -392.132334 -34.068639 -30.341958 -0.000013 -0.000004 -17.680397 -793.990039 169.376698 -250.811349 0.000005 0.000007 -16.993793 1367.256558 21.332441 -398.973643
58.556206 15.492409 38.214493 2873.574894 21.329448 0.900310 -0.201604 0.334098 6.453205 3.378725 16.006209 11.898458 -0.000003 0.000004 3.567991 -7.812771 -5.322777 -2.365959 -0.000005 -0.000000 8.296403 198.780812 -185.231643 178.578834 -0.000006 -0.000000 2.173897 1.671777 -0.318752 0.898965 1.927597 0.221405 6.049000 -17.814353 3.889751 -0.129411 4.959700 0.000003 0.000003 138.582107 178.498388 82.504710 -0.000004 0.000004 -8.654200 -11.102757 -44.819285 14.760525 -0.000001 0.000002 -13.864100 3914.144269 44.111045 -105.976607 -3.155710 -0.765001 6.687801 45.934487 19.190455 6.250809 -3.592914 -0.000001 0.000006 -136.471209 182.461414 273.677484 0.000003 0.000000 -10.352398 -311.734205 -40.164241 -330.034386 -0.000007 -0.000003 -12.750295 151.505275 190.629938 -203.641954 2.460595 -0.518110 -2.735497 -1003.007269 -35.420746 57.283482 0.000000 -0.000002 -17.005894 800.746571 144.410280 -127.942065 -0.000011 -0.000007 -19.194405 234.265189 166.440700 205.712853 -3.115500 -0.679602 -2.320303 -388.977443 -32.005423 -27.264339 -0.000012 0.000002 -17.680401 -796.731021 168.016506 -248.471217 0.000004 0.000000 -16.993797 1370.871532 21.816263 -398.896926
58.545105 15.231707 38.781090 2872.542388 19.847903 1.029187 -0.201602 0.334096 6.453199 4.418855 15.119105 11.947727 0.000000 0.000002 3.567992 -8.200112 -5.007939 -2.381823 -0.000003 0.000004 8.296398 199.155735 -186.802546 177.874163 -0.000004 -0.000002 2.173899 1.772064 -0.230798 1.127365 1.927603 0.221407 6.048996 -18.352435 4.507183 -0.161144 4.959698 -0.000002 0.000003 141.079866 178.130569 79.156114 -0.000004 -0.000006 -8.654198 -10.213683 -47.845175 15.669272 0.000001 0.000001 -13.864098 3915.138745 44.179542 -105.663744 -3.155706 -0.764997 6.687798 46.551243 19.699066 5.915122 -3.592893 -0.000015 0.000011 -138.812175 181.163268 277.036981 -0.000003 -0.000010 -10.352387 -307.271223 -40.575449 -325.706504 0.000010 0.000002 -12.750303 147.747100 190.910932 -203.946894 2.460597 -0.518103 -2.735504 -1005.674977 -35.247085 53.068128 -0.000001 -0.000002 -17.005898 805.352250 143.214546 -131.272575 -0.000010 -0.000002 -19.194401 230.430393 165.673724 200.354570 -3.115498 -0.679597 -2.320305 -385.871428 -30.000431 -24.283882 -0.000012 -0.000004 -17.680399 -799.289282 167.160520 -246.216380 0.000004 0.000002 -16.993793 1374.323564 22.548891 -398.151124
58.533195 14.944008 39.327286 2871.671621 18.176522 0.929009 -0.201602 0.334094 6.453200 4.500903 14.450023 12.290068 -0.000001 0.000001 3.567996 -7.788239 -4.774044 -2.235018 -0.000011 0.000000 8.296393 199.585163 -188.206778 177.045320 -0.000009 0.000003 2.173900 1.841846 -0.225015 1.318300 1.927591 0.221404 6.048998 -18.443473 5.150709 -0.758391 4.959698 -0.000007 -0.000005 143.119702 178.088112 75.892868 0.000000 -0.000006 -8.654198 -9.202767 -50.425186 16.631465 0.000000 -0.000003 -13.864099 3915.783077 44.523339 -105.237943 -3.155710 -0.764996 6.687794 47.200022 17.436406 6.029042 -3.592891 -0.000004 -0.000000 -141.057955 178.128287 278.426487 0.000001 -0.000002 -10.352402 -305.774127 -42.014205 -323.615510 -0.000011 -0.000002 -12.750296 148.755837 190.532416 -203.482100 2.460599 -0.518106 -2.735506 -1008.992810 -34.819276 48.621508 0.000003 0.000004 -17.005890 810.388175 142.239017 -135.001804 -0.000008 0.000003 -19.194405 226.178340 164.773259 195.489317 -3.115500 -0.679602 -2.320301 -383.119791 -27.771744 -21.381834 -0.000012 0.000000 -17.680403 -801.465653 166.817644 -244.019272 0.000003 -0.000008 -16.993797 1375.863690 23.304585 -398.455123
